<?xml version="1.0" encoding="UTF-8"?>
<svg id="Ebene_1" xmlns="http://www.w3.org/2000/svg" version="1.1" viewBox="0 0 141.7 141.7">
  <!-- Generator: Adobe Illustrator 30.2.1, SVG Export Plug-In . SVG Version: 2.1.1 Build 1)  -->
  <defs>
    <style>
      .st0 {
        fill: #000330;
      }
    </style>
  </defs>
  <path class="st0" d="M114.3,38.3c1.8,0,3.5-1.7,3.5-3.5v-8c0-1.8-1.7-3.5-3.5-3.5H27.4c-1.8,0-3.5,1.7-3.5,3.5v8.1c0,1.8,1.7,3.5,3.5,3.5h26.8c4.8,0,7.3,3.7,7.3,7.1s-3.4,7.1-7.3,7.1h-26.8c-1.8,0-3.5,1.7-3.5,3.5v8.1c0,1.8,1.7,3.5,3.5,3.5,5,0,10.1,0,15-.2,15.9-.2,29.7-.4,37.7,1.8,14.7,4.2,17.5,11.3,17.8,15.2.5,5.7-3.4,11.3-10.2,14.7-9.6,4.7-26.5,4.8-42.6-10.2-.5-.5-1.4-1.2-2.3-2-1.5-1.3-3.3-2.8-4.8-4.2-.5-.5-1.3-.9-2.2-.9s-1.5.3-2.2,1l-6.6,6.9c-1.2,1.3-1.3,3.6-.1,4.8,10.7,11.9,24.2,20.5,35.1,22.6,27.3,5.2,46-6.4,52.4-20.2,5.5-11.8,1.9-24.8-9.4-33.8-2.6-2.1-7.2-4.9-12.1-7-4.5-2-12.8-4.3-12.8-10.8s2.4-7.1,7.3-7.1h26.9,0Z"/>
</svg>