<?xml version="1.0" encoding="UTF-8"?>
<svg id="Ebene_1" xmlns="http://www.w3.org/2000/svg" version="1.1" viewBox="0 0 255.2 60">
  <!-- Generator: Adobe Illustrator 30.1.0, SVG Export Plug-In . SVG Version: 2.1.1 Build 136)  -->
  <defs>
    <style>
      .st0 {
        fill: #000330;
      }
    </style>
  </defs>
  <path class="st0" d="M33.2,29.4l-3.4-.8c-3.8-.9-7.6-2.2-7.6-5.2s.6-2.3,1.8-3c1.1-.8,2.8-1.2,4.6-1.2h0c4.5,0,7.2,2.5,8.2,4.7v.2l4.2-1.3v-.3c-1.8-4.1-6.5-6.9-12-6.9h0c-7.3,0-11.1,4.1-11.1,8.1,0,6,6.9,7.6,9.8,8.3l3.2.7c3.1.7,6.9,1.5,6.9,4.6s-4.4,4.7-7.5,4.8h0c-4.2,0-8.2-2.3-9.9-5.6v-.2c-.1,0-4.1,1.2-4.1,1.2v.3c2,4.8,7.4,7.9,13.9,7.9h.1c3.4,0,6.4-.9,8.6-2.5,2.2-1.6,3.4-3.8,3.4-6.2,0-5.3-5.9-6.7-9.1-7.4h0s0-.2,0-.2Z"/>
  <path class="st0" d="M75.5,34.5c-2.3,4.5-6.5,7-11.8,7.1h0c-6.6,0-11.4-4-11.8-9.7,0-.2,0-.3.3-.3l26.6-.2c.2,0,.3-.1.3-.3v-1.7c0-10.4-8.4-14.1-15.7-14.1h0c-9.4,0-16.1,6.4-16.1,15.2s6.8,14.8,16.3,14.8h0c7.5,0,13.2-3.5,15.8-9.4v-.3l-3.8-1.3v.2h0ZM63.3,19.2c7.2,0,10.1,4.1,10.5,7.9,0,.2,0,.3-.3.3h-21.3c-.2.1-.3,0-.3-.2,1.2-4.6,5.8-7.9,11.2-7.9h.2,0Z"/>
  <path class="st0" d="M113,34.4c-2.3,4.5-6.5,7-11.8,7.1h0c-6.6,0-11.4-4-11.8-9.7,0-.2,0-.3.3-.3h26.6c.2-.1.3-.3.3-.4v-1.7c0-5-1.9-8.8-5.6-11.3-2.7-1.8-6.3-2.8-10.1-2.8h0c-4.4,0-8.5,1.5-11.4,4.3-3,2.8-4.6,6.6-4.6,10.9s1.7,8,4.7,10.7c2.9,2.6,7.1,4,11.7,4h0c7.5,0,13.2-3.5,15.8-9.4v-.3l-3.8-1.3v.2s-.3,0-.3,0ZM100.9,19c7.2,0,10.1,4.1,10.5,7.9,0,.2,0,.3-.3.3h-21.3c-.2.1-.3,0-.3-.2,1.2-4.6,5.8-7.9,11.2-7.9h.2Z"/>
  <path class="st0" d="M140.2,39.8c-2.2,1.2-4.1,1.5-5.4,1.5h0c-4.4,0-4.4-3.6-4.5-6.8v-14.8c0-.2,0-.3.2-.3h9.7c.2,0,.3-.2.3-.3v-3c0-.2-.2-.3-.3-.3h-20.6c-.2.1-.3.2-.3.4v3c0,.2,0,.3.3.3h6.1c.2,0,.3,0,.3.2v15.8c0,3.1,0,9.4,8.2,9.4h0c2.2,0,4.6-.5,6.2-1.4h.2v-4l-.4.2h0Z"/>
  <path class="st0" d="M165.6,15.4c-1.1-.4-2.6-.6-4-.5-4.3,0-8.2,2.1-10.2,5.2-.1.2-.5.1-.5-.1v-3.9c0-.2-.2-.3-.3-.3h-3.6c-.2,0-.3.1-.3.3l.2,27.7c0,.2.1.3.3.3h3.7c.2,0,.3-.2.3-.3v-13.5c-.1-7.3,5.1-11.2,10.3-11.2h0c1.1,0,2.9.2,4,.6h.4c0,.1,0-4.2,0-4.2h-.3,0Z"/>
  <path class="st0" d="M198.5,34.8V15.7c-.1-.2-.2-.3-.4-.3h-3.7c-.2,0-.3.1-.3.3v15.7c.1,4.7-3.7,9.5-10.1,9.5h0c-1.7,0-4.1-.3-6-1.9-1.9-1.6-2.9-4-2.9-7.1V15.9c0-.2-.2-.3-.4-.3h-3.7c-.2,0-.3.1-.3.3v17.4c.2,8.4,6.4,11.4,12.3,11.4h.1c4.7,0,8.4-1.7,10.8-4.9.2-.2.5,0,.5,0,.1,1.1.4,2.3.8,3.6v.2h4.5v-.4c-.9-2.4-1.2-4.2-1.3-8.6h0v.2Z"/>
  <path class="st0" d="M234.9,33.4v.2c-2.5,4.5-6.7,7-11.9,7.1h0c-6.6,0-11.4-4-11.8-9.7,0-.2.1-.3.3-.3h26.6c.2-.1.3-.3.3-.4v-1.7c0-10.4-8.4-14.1-15.7-14.1h-.1c-9.4,0-16.1,6.4-16.1,15.2s6.8,14.8,16.4,14.8h.1c7.5,0,13.2-3.5,15.8-9.4v-.3c.1,0-3.8-1.3-3.8-1.3h-.1ZM222.7,18.3c7.2,0,10.1,4.1,10.5,7.9,0,.2-.1.3-.3.3h-21.3c-.2.1-.3,0-.3-.2,1.1-4.6,5.8-7.9,11.2-7.9h.2Z"/>
</svg>